<svg xmlns="http://www.w3.org/2000/svg" xmlns:xlink="http://www.w3.org/1999/xlink" width="1080" zoomAndPan="magnify" viewBox="0 0 810 809.999993" height="1080" preserveAspectRatio="xMidYMid meet" version="1.0"><defs><clipPath id="ac502cee45"><path d="M 27.542969 246.578125 L 791.894531 246.578125 L 791.894531 697.824219 L 27.542969 697.824219 Z M 27.542969 246.578125 " clip-rule="nonzero"/></clipPath><clipPath id="4318a43aa9"><path d="M 0.542969 0.578125 L 764.894531 0.578125 L 764.894531 451.824219 L 0.542969 451.824219 Z M 0.542969 0.578125 " clip-rule="nonzero"/></clipPath><clipPath id="03e0e64623"><rect x="0" width="765" y="0" height="452"/></clipPath><clipPath id="0c890b6340"><path d="M 282.117188 683.976562 L 525.15625 683.976562 L 525.15625 774.015625 L 282.117188 774.015625 Z M 282.117188 683.976562 " clip-rule="nonzero"/></clipPath><clipPath id="766f746d8a"><path d="M 403.65625 774.015625 L 282.15625 683.976562 L 525.15625 683.976562 Z M 403.65625 774.015625 " clip-rule="nonzero"/></clipPath><clipPath id="d4da32955d"><path d="M 0.117188 0.976562 L 243.15625 0.976562 L 243.15625 91.015625 L 0.117188 91.015625 Z M 0.117188 0.976562 " clip-rule="nonzero"/></clipPath><clipPath id="ce266bdb5c"><path d="M 121.65625 91.015625 L 0.15625 0.976562 L 243.15625 0.976562 Z M 121.65625 91.015625 " clip-rule="nonzero"/></clipPath><clipPath id="357e55f3d6"><rect x="0" width="244" y="0" height="92"/></clipPath><clipPath id="5edcb7d9e7"><path d="M 386 134.660156 L 720 134.660156 L 720 696 L 386 696 Z M 386 134.660156 " clip-rule="nonzero"/></clipPath><clipPath id="5133c53b15"><path d="M 87 134.660156 L 422 134.660156 L 422 696 L 87 696 Z M 87 134.660156 " clip-rule="nonzero"/></clipPath><clipPath id="2069d93f9f"><path d="M 0 222 L 807 222 L 807 783.410156 L 0 783.410156 Z M 0 222 " clip-rule="nonzero"/></clipPath><clipPath id="e4c3f6c3ad"><path d="M 93.460938 176.230469 L 204.621094 176.230469 L 204.621094 433.949219 L 93.460938 433.949219 Z M 93.460938 176.230469 " clip-rule="nonzero"/></clipPath><clipPath id="1ed5a4196d"><path d="M 0.460938 0.230469 L 111.621094 0.230469 L 111.621094 257.949219 L 0.460938 257.949219 Z M 0.460938 0.230469 " clip-rule="nonzero"/></clipPath><clipPath id="3eecb627db"><rect x="0" width="112" y="0" height="258"/></clipPath><clipPath id="ceed1b0e88"><path d="M 605.171875 176.230469 L 716.332031 176.230469 L 716.332031 433.949219 L 605.171875 433.949219 Z M 605.171875 176.230469 " clip-rule="nonzero"/></clipPath><clipPath id="1e8e1bb303"><path d="M 0.171875 0.230469 L 111.332031 0.230469 L 111.332031 257.949219 L 0.171875 257.949219 Z M 0.171875 0.230469 " clip-rule="nonzero"/></clipPath><clipPath id="753a9a5e61"><rect x="0" width="112" y="0" height="258"/></clipPath></defs><g clip-path="url(#ac502cee45)"><g transform="matrix(1, 0, 0, 1, 27, 246)"><g clip-path="url(#03e0e64623)"><g clip-path="url(#4318a43aa9)"><path fill="#ffffff" d="M 0.542969 0.578125 L 765.546875 0.578125 L 765.546875 451.824219 L 0.542969 451.824219 Z M 0.542969 0.578125 " fill-opacity="1" fill-rule="nonzero"/></g></g></g></g><g clip-path="url(#0c890b6340)"><g clip-path="url(#766f746d8a)"><g transform="matrix(1, 0, 0, 1, 282, 683)"><g clip-path="url(#357e55f3d6)"><g clip-path="url(#d4da32955d)"><g clip-path="url(#ce266bdb5c)"><path fill="#ffffff" d="M 243.15625 91.015625 L 0.117188 91.015625 L 0.117188 0.972656 L 243.15625 0.972656 Z M 243.15625 91.015625 " fill-opacity="1" fill-rule="nonzero"/></g></g></g></g></g></g><g clip-path="url(#5edcb7d9e7)"><path fill="#ffcc00" d="M 701.792969 134.660156 C 444.707031 134.660156 390.164062 237.433594 387.972656 241.816406 C 386.746094 244.253906 386.113281 246.957031 386.113281 249.691406 L 386.113281 678.332031 C 386.113281 685.800781 390.953125 692.273438 398.023438 694.746094 C 399.847656 695.375 401.757812 695.691406 403.636719 695.691406 C 409 695.691406 414.226562 693.21875 417.664062 688.886719 C 418.15625 688.238281 470.296875 625.71875 701.792969 625.71875 C 711.492188 625.71875 719.332031 617.878906 719.332031 608.179688 L 719.332031 152.199219 C 719.332031 142.5 711.492188 134.660156 701.792969 134.660156 Z M 701.792969 134.660156 " fill-opacity="1" fill-rule="nonzero"/></g><g clip-path="url(#5133c53b15)"><path fill="#ffcc00" d="M 419.332031 241.816406 C 417.140625 237.433594 362.597656 134.660156 105.511719 134.660156 C 95.8125 134.660156 87.972656 142.5 87.972656 152.199219 L 87.972656 608.179688 C 87.972656 617.878906 95.8125 625.71875 105.511719 625.71875 C 337.007812 625.71875 389.148438 688.238281 389.410156 688.554688 C 392.761719 693.238281 398.109375 695.867188 403.652344 695.867188 C 405.457031 695.867188 407.246094 695.585938 409.019531 695.027344 C 416.28125 692.695312 421.191406 685.960938 421.191406 678.332031 L 421.191406 249.691406 C 421.191406 246.957031 420.558594 244.253906 419.332031 241.816406 Z M 419.332031 241.816406 " fill-opacity="1" fill-rule="nonzero"/></g><g clip-path="url(#2069d93f9f)"><path fill="#0e2a54" d="M 403.652344 783.554688 C 400.265625 783.554688 396.867188 782.574219 393.917969 780.609375 C 243.496094 680.328125 22.699219 712.863281 20.488281 713.195312 C 15.472656 714 10.28125 712.511719 6.386719 709.179688 C 2.511719 705.847656 0.285156 700.988281 0.285156 695.867188 L 0.285156 240.992188 C 0.285156 231.523438 7.808594 223.769531 17.277344 223.472656 C 17.277344 223.472656 52.617188 222.351562 87.972656 222.351562 C 97.671875 222.351562 105.511719 230.1875 105.511719 239.886719 C 105.511719 249.585938 97.671875 257.425781 87.972656 257.425781 C 68.367188 257.425781 48.742188 257.777344 35.359375 258.074219 L 35.359375 676.066406 C 94.410156 670.140625 269.101562 661.371094 403.652344 745.148438 C 538.203125 661.371094 712.914062 670.15625 771.945312 676.066406 L 771.945312 258.074219 C 758.5625 257.777344 738.9375 257.425781 719.332031 257.425781 C 709.632812 257.425781 701.792969 249.585938 701.792969 239.886719 C 701.792969 230.1875 709.632812 222.351562 719.332031 222.351562 C 754.6875 222.351562 790.027344 223.472656 790.027344 223.472656 C 799.496094 223.769531 807.019531 231.523438 807.019531 240.992188 L 807.019531 695.867188 C 807.019531 700.988281 804.773438 705.828125 800.898438 709.179688 C 797.003906 712.492188 791.761719 713.984375 786.816406 713.195312 C 784.589844 712.84375 563.542969 680.523438 413.367188 780.609375 C 410.4375 782.574219 407.039062 783.554688 403.652344 783.554688 Z M 403.652344 783.554688 " fill-opacity="1" fill-rule="nonzero"/></g><path fill="#0e2a54" d="M 403.652344 713.40625 C 393.953125 713.40625 386.113281 705.566406 386.113281 695.867188 L 386.113281 222.351562 C 386.113281 212.652344 393.953125 204.8125 403.652344 204.8125 C 413.351562 204.8125 421.191406 212.652344 421.191406 222.351562 L 421.191406 695.867188 C 421.191406 705.566406 413.351562 713.40625 403.652344 713.40625 Z M 403.652344 713.40625 " fill-opacity="1" fill-rule="nonzero"/><g clip-path="url(#e4c3f6c3ad)"><g transform="matrix(1, 0, 0, 1, 93, 176)"><g clip-path="url(#3eecb627db)"><g clip-path="url(#1ed5a4196d)"><path fill="#ffcc00" d="M 0.460938 0.230469 L 111.621094 0.230469 L 111.621094 258.15625 L 0.460938 258.15625 Z M 0.460938 0.230469 " fill-opacity="1" fill-rule="nonzero"/></g></g></g></g><g clip-path="url(#ceed1b0e88)"><g transform="matrix(1, 0, 0, 1, 605, 176)"><g clip-path="url(#753a9a5e61)"><g clip-path="url(#1e8e1bb303)"><path fill="#ffcc00" d="M 0.171875 0.230469 L 111.332031 0.230469 L 111.332031 258.15625 L 0.171875 258.15625 Z M 0.171875 0.230469 " fill-opacity="1" fill-rule="nonzero"/></g></g></g></g><path fill="#0e2a54" d="M 530.269531 363.808594 C 529.277344 364.46875 528.371094 364.882812 527.546875 365.210938 L 457.355469 394.164062 C 445.148438 399.195312 439.375 393.339844 444.40625 381.214844 L 473.273438 311.105469 C 473.605469 310.28125 474.179688 309.289062 474.757812 308.382812 Z M 485.726562 296.917969 L 743.316406 39.25 C 755.605469 26.957031 775.730469 26.957031 788.101562 39.332031 L 799.15625 50.464844 C 811.609375 62.921875 811.609375 82.878906 799.320312 95.335938 L 788.019531 106.46875 L 799.238281 117.605469 C 805.421875 123.875 805.339844 134.019531 799.320312 140.121094 L 726.488281 212.953125 C 723.355469 216.003906 718.242188 215.921875 715.273438 212.953125 C 712.136719 209.820312 712.300781 204.703125 715.273438 201.570312 L 788.019531 128.90625 L 776.886719 117.6875 L 541.734375 352.839844 Z M 754.449219 50.546875 L 743.234375 61.683594 L 776.886719 95.335938 L 788.019531 84.117188 C 794.207031 77.933594 794.289062 68.035156 788.019531 61.683594 L 776.800781 50.546875 C 770.699219 44.363281 760.636719 44.363281 754.449219 50.546875 Z M 754.449219 50.546875 " fill-opacity="1" fill-rule="evenodd"/></svg>